<svg width="636" height="115" viewBox="0 0 636 115" fill="none" xmlns="http://www.w3.org/2000/svg">
<path d="M172.727 90.215C168.947 90.215 165.397 89.5535 162.076 88.2305C158.782 86.8805 155.879 84.9095 153.368 82.3175C150.884 79.7255 148.94 76.553 147.536 72.8C146.132 69.02 145.43 64.7 145.43 59.84C145.43 53.468 146.618 48.0275 148.994 43.5185C151.37 38.9825 154.624 35.513 158.755 33.11C162.886 30.68 167.543 29.465 172.727 29.465C179.909 29.465 185.593 31.139 189.778 34.487C193.99 37.808 196.838 42.479 198.323 48.5L188.36 50.0795C187.253 46.6235 185.444 43.8695 182.933 41.8175C180.422 39.7385 177.223 38.699 173.335 38.699C169.42 38.645 166.166 39.4955 163.574 41.2505C160.982 43.0055 159.025 45.476 157.702 48.662C156.406 51.848 155.758 55.574 155.758 59.84C155.758 64.106 156.406 67.8185 157.702 70.9775C158.998 74.1095 160.942 76.553 163.534 78.308C166.153 80.063 169.42 80.9675 173.335 81.0215C176.278 81.0485 178.856 80.522 181.07 79.442C183.284 78.335 185.093 76.6745 186.497 74.4605C187.901 72.2195 188.846 69.425 189.332 66.077H179.045V58.4225H199.7C199.754 58.8545 199.795 59.489 199.822 60.326C199.849 61.163 199.862 61.6625 199.862 61.8245C199.862 67.3325 198.769 72.233 196.582 76.526C194.422 80.792 191.317 84.14 187.267 86.57C183.217 89 178.37 90.215 172.727 90.215ZM227.315 90.215C222.941 90.215 219.12 89.2295 215.853 87.2585C212.586 85.2875 210.048 82.574 208.239 79.118C206.457 75.635 205.566 71.639 205.566 67.13C205.566 62.54 206.484 58.517 208.32 55.061C210.156 51.605 212.708 48.905 215.975 46.961C219.242 45.017 223.022 44.045 227.315 44.045C231.716 44.045 235.55 45.0305 238.817 47.0015C242.084 48.9725 244.622 51.6995 246.431 55.1825C248.24 58.6385 249.144 62.621 249.144 67.13C249.144 71.666 248.226 75.6755 246.39 79.1585C244.581 82.6145 242.043 85.328 238.776 87.299C235.509 89.243 231.689 90.215 227.315 90.215ZM227.315 81.062C231.203 81.062 234.092 79.766 235.982 77.174C237.872 74.582 238.817 71.234 238.817 67.13C238.817 62.891 237.858 59.516 235.941 57.005C234.024 54.467 231.149 53.198 227.315 53.198C224.696 53.198 222.536 53.792 220.835 54.98C219.161 56.141 217.919 57.7745 217.109 59.8805C216.299 61.9595 215.894 64.376 215.894 67.13C215.894 71.369 216.852 74.7575 218.769 77.2955C220.713 79.8065 223.562 81.062 227.315 81.062ZM274.47 90.2555C271.23 90.2555 268.557 89.7155 266.451 88.6355C264.345 87.5555 262.671 86.1785 261.429 84.5045C260.187 82.8305 259.269 81.0485 258.675 79.1585C258.081 77.2685 257.689 75.4865 257.5 73.8125C257.338 72.1115 257.257 70.7345 257.257 69.6815V45.26H267.139V66.32C267.139 67.67 267.234 69.1955 267.423 70.8965C267.612 72.5705 268.044 74.1905 268.719 75.7565C269.421 77.2955 270.447 78.5645 271.797 79.5635C273.174 80.5625 275.023 81.062 277.345 81.062C278.587 81.062 279.816 80.8595 281.031 80.4545C282.246 80.0495 283.339 79.361 284.311 78.389C285.31 77.39 286.107 76.0265 286.701 74.2985C287.295 72.5705 287.592 70.3835 287.592 67.7375L293.383 70.208C293.383 73.934 292.654 77.309 291.196 80.333C289.765 83.357 287.646 85.7735 284.838 87.5825C282.03 89.3645 278.574 90.2555 274.47 90.2555ZM288.766 89V75.4325H287.592V45.26H297.393V89H288.766ZM308.772 89V45.26H317.398V55.9115L316.345 54.5345C316.885 53.0765 317.601 51.7535 318.492 50.5655C319.41 49.3505 320.503 48.3515 321.772 47.5685C322.852 46.8395 324.04 46.2725 325.336 45.8675C326.659 45.4355 328.009 45.179 329.386 45.098C330.763 44.99 332.1 45.044 333.396 45.26V54.3725C332.1 53.9945 330.601 53.873 328.9 54.008C327.226 54.143 325.714 54.6155 324.364 55.4255C323.014 56.1545 321.907 57.086 321.043 58.22C320.206 59.354 319.585 60.65 319.18 62.108C318.775 63.539 318.573 65.0915 318.573 66.7655V89H308.772ZM393.653 89V62.432C393.653 59.435 392.91 57.0995 391.425 55.4255C389.94 53.7245 387.929 52.874 385.391 52.874C383.825 52.874 382.421 53.2385 381.179 53.9675C379.937 54.6695 378.951 55.7225 378.222 57.1265C377.493 58.5035 377.129 60.1505 377.129 62.0675L372.795 59.516C372.768 56.492 373.443 53.8325 374.82 51.5375C376.224 49.2155 378.114 47.4065 380.49 46.1105C382.866 44.8145 385.512 44.1665 388.428 44.1665C393.261 44.1665 396.96 45.6245 399.525 48.5405C402.117 51.4295 403.413 55.2365 403.413 59.9615V89H393.653ZM341.043 89V45.26H349.67V58.8275H350.885V89H341.043ZM367.409 89V62.5535C367.409 59.5025 366.666 57.1265 365.181 55.4255C363.696 53.7245 361.671 52.874 359.106 52.874C356.622 52.874 354.624 53.7245 353.112 55.4255C351.627 57.1265 350.885 59.3405 350.885 62.0675L346.511 59.1515C346.511 56.3165 347.213 53.765 348.617 51.497C350.021 49.229 351.911 47.447 354.287 46.151C356.69 44.828 359.376 44.1665 362.346 44.1665C365.613 44.1665 368.34 44.8685 370.527 46.2725C372.741 47.6495 374.388 49.5395 375.468 51.9425C376.575 54.3185 377.129 57.005 377.129 60.002V89H367.409ZM433.15 90.215C428.722 90.215 424.834 89.2565 421.486 87.3395C418.138 85.4225 415.519 82.763 413.629 79.361C411.766 75.959 410.835 72.044 410.835 67.616C410.835 62.837 411.753 58.6925 413.589 55.1825C415.425 51.6455 417.976 48.905 421.243 46.961C424.51 45.017 428.29 44.045 432.583 44.045C437.119 44.045 440.967 45.1115 444.126 47.2445C447.312 49.3505 449.674 52.334 451.213 56.195C452.752 60.056 453.333 64.6055 452.955 69.8435H443.275V66.2795C443.248 61.5275 442.411 58.058 440.764 55.871C439.117 53.684 436.525 52.5905 432.988 52.5905C428.992 52.5905 426.022 53.8325 424.078 56.3165C422.134 58.7735 421.162 62.378 421.162 67.13C421.162 71.558 422.134 74.987 424.078 77.417C426.022 79.847 428.857 81.062 432.583 81.062C434.986 81.062 437.052 80.5355 438.78 79.4825C440.535 78.4025 441.885 76.85 442.83 74.825L452.469 77.741C450.795 81.683 448.203 84.7475 444.693 86.9345C441.21 89.1215 437.362 90.215 433.15 90.215ZM418.084 69.8435V62.4725H448.176V69.8435H418.084ZM487.628 89C484.739 89.54 481.904 89.7695 479.123 89.6885C476.369 89.6345 473.898 89.135 471.711 88.19C469.524 87.218 467.864 85.6925 466.73 83.6135C465.731 81.7235 465.204 79.793 465.15 77.822C465.096 75.851 465.069 73.6235 465.069 71.1395V33.11H474.789V70.5725C474.789 72.3275 474.803 73.8665 474.83 75.1895C474.884 76.5125 475.167 77.5925 475.68 78.4295C476.652 80.0495 478.205 80.954 480.338 81.143C482.471 81.332 484.901 81.224 487.628 80.819V89ZM457.131 52.9145V45.26H487.628V52.9145H457.131ZM514.704 90.215C510.276 90.215 506.388 89.2565 503.04 87.3395C499.692 85.4225 497.073 82.763 495.183 79.361C493.32 75.959 492.388 72.044 492.388 67.616C492.388 62.837 493.306 58.6925 495.142 55.1825C496.978 51.6455 499.53 48.905 502.797 46.961C506.064 45.017 509.844 44.045 514.137 44.045C518.673 44.045 522.52 45.1115 525.679 47.2445C528.865 49.3505 531.228 52.334 532.767 56.195C534.306 60.056 534.886 64.6055 534.508 69.8435H524.829V66.2795C524.802 61.5275 523.965 58.058 522.318 55.871C520.671 53.684 518.079 52.5905 514.542 52.5905C510.546 52.5905 507.576 53.8325 505.632 56.3165C503.688 58.7735 502.716 62.378 502.716 67.13C502.716 71.558 503.688 74.987 505.632 77.417C507.576 79.847 510.411 81.062 514.137 81.062C516.54 81.062 518.605 80.5355 520.333 79.4825C522.088 78.4025 523.438 76.85 524.383 74.825L534.022 77.741C532.348 81.683 529.756 84.7475 526.246 86.9345C522.763 89.1215 518.916 90.215 514.704 90.215ZM499.638 69.8435V62.4725H529.729V69.8435H499.638ZM562.54 90.215C558.031 90.215 554.183 89.216 550.997 87.218C547.811 85.193 545.368 82.439 543.667 78.956C541.993 75.473 541.142 71.531 541.115 67.13C541.142 62.648 542.02 58.679 543.748 55.223C545.503 51.74 547.987 49.013 551.2 47.042C554.413 45.044 558.233 44.045 562.661 44.045C567.629 44.045 571.828 45.3005 575.257 47.8115C578.713 50.2955 580.967 53.6975 582.02 58.0175L572.3 60.65C571.544 58.301 570.289 56.4785 568.534 55.1825C566.779 53.8595 564.781 53.198 562.54 53.198C560.002 53.198 557.909 53.8055 556.262 55.0205C554.615 56.2085 553.4 57.8555 552.617 59.9615C551.834 62.0675 551.443 64.457 551.443 67.13C551.443 71.288 552.374 74.6495 554.237 77.2145C556.1 79.7795 558.868 81.062 562.54 81.062C565.132 81.062 567.17 80.468 568.655 79.28C570.167 78.092 571.301 76.3775 572.057 74.1365L582.02 76.364C580.67 80.819 578.308 84.248 574.933 86.651C571.558 89.027 567.427 90.215 562.54 90.215ZM620.389 89V67.94C620.389 66.563 620.295 65.0375 620.106 63.3635C619.917 61.6895 619.471 60.083 618.769 58.544C618.094 56.978 617.068 55.6955 615.691 54.6965C614.341 53.6975 612.505 53.198 610.183 53.198C608.941 53.198 607.713 53.4005 606.498 53.8055C605.283 54.2105 604.176 54.9125 603.177 55.9115C602.205 56.8835 601.422 58.2335 600.828 59.9615C600.234 61.6625 599.937 63.8495 599.937 66.5225L594.145 64.052C594.145 60.326 594.861 56.951 596.292 53.927C597.75 50.903 599.883 48.5 602.691 46.718C605.499 44.909 608.955 44.0045 613.059 44.0045C616.299 44.0045 618.972 44.5445 621.078 45.6245C623.184 46.7045 624.858 48.0815 626.1 49.7555C627.342 51.4295 628.26 53.2115 628.854 55.1015C629.448 56.9915 629.826 58.787 629.988 60.488C630.177 62.162 630.271 63.5255 630.271 64.5785V89H620.389ZM590.055 89V30.68H598.762V61.379H599.937V89H590.055Z" fill="#3E6990"/>
<path d="M29.3428 8.92251C22.9482 12.6871 17.3271 16.0391 16.8114 16.4517C15.7801 17.3283 5.05359 36.1512 5.36301 36.5122C5.51772 36.6669 5.93027 36.5122 6.29126 36.2543C8.35404 34.6041 41.3585 15.9875 42.1836 15.9875C42.7509 15.9875 46.9796 18.205 51.6209 20.9898C56.2621 23.723 64.2554 28.3642 69.3608 31.3552C74.4661 34.2947 79.4168 37.1826 80.3451 37.7499L81.9953 38.7812V31.8709L81.9437 25.0122L68.9998 17.5346C61.8832 13.4091 53.0648 8.2521 49.3518 6.03461C45.6904 3.86869 42.2868 2.06376 41.8227 2.06376C41.3585 2.11533 35.7374 5.15793 29.3428 8.92251Z" fill="#3E6990"/>
<path d="M49.8158 2.52802C50.2284 2.94057 56.262 6.39573 66.0087 11.759C69.567 13.7186 85.2957 22.7948 85.6051 23.0527C85.7598 23.2074 85.9661 33.676 86.1208 46.4137L86.3786 69.5684L91.9481 66.3711L97.4661 63.2253V39.7096V16.1424L85.0894 9.12891L72.7643 2.06389H61.0064C53.993 2.06389 49.5064 2.27017 49.8158 2.52802Z" fill="#3E6990"/>
<path d="M28.6208 27.9001C12.6858 37.1311 6.03335 41.0504 3.76429 42.3912L2.0625 43.4226V57.862V72.3015L7.99299 82.6669L13.9235 93.084V71.8374C13.9235 53.6333 14.0266 50.4876 14.697 49.8172C15.5737 48.9405 22.7419 44.6602 40.5849 34.2948C47.4952 30.3239 53.1679 26.8172 53.1679 26.5593C53.271 26.0436 43.4728 20.1131 42.5446 20.1131C42.2351 20.1131 35.9437 23.6199 28.6208 27.9001Z" fill="#3E6990"/>
<path d="M101.592 43.9381V64.9269L100.2 65.9067C97.4664 67.8148 80.139 78.2318 71.2691 83.2341C66.37 86.0704 62.2444 88.4942 62.0897 88.752C61.8834 89.113 70.2377 94.3731 72.3005 95.1466C72.9709 95.4045 84.1099 89.1646 108.554 74.8283L112.679 72.4045L112.834 57.3462L112.937 42.2879L107.677 33.1085C104.789 28.1063 102.262 23.7744 102.004 23.465C101.798 23.2072 101.592 32.4381 101.592 43.9381Z" fill="#3E6990"/>
<path d="M23.3604 48.8882C20.4209 50.5384 17.9971 52.2402 17.8424 52.7559C17.7393 53.2716 17.5846 63.8433 17.533 76.3232L17.4814 98.9106L29.8066 105.924L42.1317 112.938H53.8895C61.0577 112.938 65.4927 112.731 65.1832 112.473C64.9254 112.216 59.8716 109.276 53.8895 105.976C36.098 96.0227 30.1675 92.6191 29.8066 92.0518C29.6003 91.794 29.394 81.2738 29.394 68.6909C29.394 56.1595 29.2393 45.8971 29.033 45.8971C28.7752 45.8971 26.2483 47.2379 23.3604 48.8882Z" fill="#3E6990"/>
<path d="M33.5195 83.4397V90.0921L44.5038 96.4352C50.4859 99.9419 59.459 105.202 64.3581 108.141C69.2572 111.081 73.3828 113.453 73.5375 113.453C73.6406 113.453 76.8379 111.648 80.6025 109.379C84.3155 107.162 89.7819 104.016 92.6698 102.366C95.5576 100.767 98.2393 99.0137 98.7034 98.5495C99.1159 98.0854 101.694 93.7536 104.428 88.9576C107.212 84.1101 109.636 79.9845 109.894 79.7267C111.544 77.9733 108.398 79.6235 92.3088 89.0092C82.4074 94.785 74.0016 99.5294 73.6922 99.5294C73.3312 99.5294 64.6675 94.6818 54.4568 88.7513C44.1944 82.8724 35.3245 77.7155 34.7056 77.406L33.5195 76.7872V83.4397Z" fill="#3E6990"/>
</svg>
